<?xml version="1.0" encoding="UTF-8"?>
<svg width="800" height="800" version="1.1" viewBox="0 0 800 800" xmlns="http://www.w3.org/2000/svg">
 <rect width="800" height="800" fill="#f3f4f6"/>
 <path d="m400 200c-33.333 0-60-26.667-60-60s26.667-60 60-60 60 26.667 60 60-26.667 60-60 60zm120 40h-240c-22.091 0-40 17.909-40 40v240c0 22.091 17.909 40 40 40h240c22.091 0 40-17.909 40-40v-240c0-22.091-17.909-40-40-40zm-120 280c-55.228 0-100-44.772-100-100s44.772-100 100-100 100 44.772 100 100-44.772 100-100 100z" fill="#e5e7eb"/>
</svg>